<svg id="visual" viewBox="0 0 900 600" width="900" height="600" xmlns="http://www.w3.org/2000/svg" xmlns:xlink="http://www.w3.org/1999/xlink" version="1.1"><g transform="translate(31.19570531687782 19.59863838220312)"><path d="M199.6 -309.2C263.8 -269.4 324.3 -222.6 338.9 -162.9C353.5 -103.2 322.3 -30.7 293.6 29.3C264.9 89.3 238.7 136.7 206.1 184C173.5 231.2 134.5 278.2 81.7 306.9C28.8 335.5 -37.8 345.7 -89.8 322.7C-141.7 299.7 -178.9 243.5 -235.8 194.9C-292.6 146.2 -369 105.1 -394.7 45.7C-420.4 -13.7 -395.3 -91.4 -349.7 -146.6C-304.1 -201.9 -238 -234.7 -176.3 -275.5C-114.6 -316.3 -57.3 -365.2 5.2 -373.3C67.8 -381.4 135.5 -348.9 199.6 -309.2" fill="#FD4D4D"></path></g></svg>